<?xml version="1.0" encoding="utf-8"?>
<!-- Generator: Adobe Illustrator 24.1.2, SVG Export Plug-In . SVG Version: 6.00 Build 0)  -->
<svg version="1.1" id="Layer_1" xmlns="http://www.w3.org/2000/svg" xmlns:xlink="http://www.w3.org/1999/xlink" x="0px" y="0px"
	 viewBox="0 0 100 100" style="enable-background:new 0 0 100 100;" xml:space="preserve">
<style type="text/css">
	.st0{fill:none;stroke:#fff;stroke-width:2;stroke-linecap:round;stroke-linejoin:round;stroke-miterlimit:10;}
</style>
<path class="st0" d="M79.64,21.84l0.9,6.44c0,0-0.99,3.16-0.9,4.58c0.09,1.42,0.39,5.23-0.01,6.1c-0.4,0.87,1.06-0.25,1.06-0.25
	l0.4,11.61c0,0,0.19,3.93-0.59,5.42c-0.78,1.49-3.07,4.58-2.48,12.48c0,0.03-0.77,6.97-0.08,8.42c-0.02,0-2.31,1.77-2.31,1.77
	s1.05,1.25,0,2.29c-0.91,0.9-1.46,1.61-1.46,1.61s4.76-2.56,11.55-2.32c0-0.03,4.57-1.43,5.22-1.49c0.65-0.06,0.94,0.56,1.47,0.62
	s3.11-0.44,3.64-0.06c0.35,0.25-2.37,2.46-6.09,2.94c-0.03,0-1.92,0.62-2.51,1.08s-3.56,0.62-4.09,0.84
	c-0.53,0.22-1.52,0.62-2.29,0.53c-0.77-0.09-7.5,1.63-7.71,1.67c-1.01,0.19-2.07,0.7-1.21-0.56c0.62-0.89,0.68-2.57,0.68-2.57
	s1.15-2.63-1.24-3.93c-2.38-1.3-7.4-4.24-7.4-4.24s-0.31-1.24-0.96-1.67c-0.65-0.43-1.67-0.31-1.67-0.31s-2.17-1.53-1.95-3.31
	c0.29-2.35-0.87-3.19-1.83-3.56c-0.96-0.37-0.96-0.96-0.96-0.96s-0.71-0.71-2.35-0.71S5.25,64.36,5.25,64.36S3.8,64.67,3.8,63.31
	c0-1.36,0-2.69,0-2.69s0.03-0.96,1.33-1.49s2.29-1.3,2.69-1.8S9.28,56,9.74,55.91c0.46-0.09,1.86-1.11,1.86-1.52
	c0-0.4,0.96-1.58,1.7-1.83c0.74-0.25,1.39-0.99,0.96-2.23c-0.43-1.24-0.46-1.83-0.31-2.17s-0.03-1.52-0.84-1.67
	c-0.81-0.15-0.96-0.34-0.9-0.71c0.06-0.37,0.12-1.52,0.12-1.52s1.67-2.01,7.06-2.2c0,0,2.97,0.12,3.78,0
	c0.81-0.12,4.18,0.53,4.18,0.53s0.93,0.34,1.49,0.77c0.56,0.43,1.15,0.9,1.92,0.62s1.77-0.68,2.88-0.59
	c1.11,0.09,2.01,0.46,2.94,0.12c0.93-0.34,2.23-0.74,2.97-0.77c0.74-0.03,0.84-0.37,0.99-0.62c0.15-0.25,0.81-1.05,1.21-1.21
	c0.4-0.15,1.55-1.11,1.55-1.11s0.77-0.46,1.55-0.31c0.77,0.15,1.61-0.19,1.3-1.77s-0.56-2.14-0.56-2.14s-0.43-0.59,0.43-1.42
	s1.15-1.77,1.15-1.77s0.03-1.67-1.08-1.46c-1.11,0.22-0.93,0.37-1.42-0.28s-0.09-1.49,0.19-1.61c0.28-0.12,2.73-1.52,3.69-2.17
	s2.07-1.64,2.07-1.64s0.65-0.81,0.59-1.77c-0.06-0.96,3.78-3.9,3.78-3.9s3.38-2.91,4.61-3.41c1.24-0.5,1.83-0.81,3-0.68
	s12.7,0.06,14.77-0.37c0,0.03,1.24-0.19,1.52,0c0.28,0.19,1.49,0.74,1.08,1.58s-0.74,0.77-0.5,1.52c0.25,0.74,0.56,1.24,0.25,1.89
	C79.42,20.76,79.64,21.84,79.64,21.84z"/>
</svg>
