<?xml version="1.0" encoding="utf-8"?>
<!-- Generator: Adobe Illustrator 25.2.3, SVG Export Plug-In . SVG Version: 6.00 Build 0)  -->
<svg version="1.1" id="Calque_1" xmlns="http://www.w3.org/2000/svg" xmlns:xlink="http://www.w3.org/1999/xlink" x="0px" y="0px"
	 viewBox="0 0 795.9 535.1" style="enable-background:new 0 0 795.9 535.1;" xml:space="preserve">
<style type="text/css">
	.st0{fill:#FFFFFF;}
</style>
<g>
	<g>
		<g>
			<path class="st0" d="M468.9,122.5l23.4,37.3v-37.2c0,0,2.6-1.9,9-1.9c6.4,0,9.1,1.9,9.1,1.9v64.7c0,0-2.5,1.9-9,1.9
				c-6.2,0-8.8-1.7-8.8-1.7l-23.5-37.3v37.1c0,0-2.6,1.9-9.1,1.9c-6.3,0-8.9-1.9-8.9-1.9v-64.7c0,0,2.5-1.9,9-1.9
				C466.4,120.7,468.9,122.5,468.9,122.5z"/>
			<path class="st0" d="M558.3,159.4h-17.1v16.5h24.7c0,0,1.9,2,1.9,6.5c0,4.6-1.9,6.6-1.9,6.6h-42.8v-68.4H564c0,0,2,2.1,2,6.6
				c0,4.5-2,6.6-2,6.6h-22.8v12.1h17.1c0,0,1.9,2.1,1.9,6.6C560.2,157.5,558.3,159.4,558.3,159.4z"/>
			<path class="st0" d="M589.7,187.3l-18.5-64.7c0,0,2.7-1.9,9.1-1.9c6.4,0,9,1.9,9,1.9l9.3,32.8c0.7,2.4,1,4.3,1.3,5.4
				c0-0.3,0.5-3,1.1-5.3l8.1-32.9c0,0,3.1-1.9,7.5-1.9c4.2,0,7.1,1.9,7.1,1.9l7.7,32.8l1.3,5.4c0-0.9,0.6-3.3,1.2-5.3l9.6-32.9
				c0.1,0,2.6-1.9,8.9-1.9c6.3,0,9.1,1.9,9.1,1.9l-18.8,64.7c0,0-2.6,1.8-8.6,1.9c-6.9,0-9.4-1.9-9.4-1.9l-7.3-30
				c-0.6-2.2-1-4.7-1.1-5.2l-1.2,5.2l-7.3,30c0,0-2.5,1.9-9,1.9C592.5,189.1,589.7,187.3,589.7,187.3z"/>
			<path class="st0" d="M463.3,207.5l8,14.1c2.7,4.8,4.2,10.2,4.4,10.8c0.2-0.7,1.6-6,4.4-10.8l8.2-14.1c0,0,2.4-1.8,8.4-1.8
				c6.7,0,9.6,2.2,9.6,2.2l-21.6,37.3v27c0,0-2.5,1.9-9,1.9c-6.4,0-8.9-1.9-8.9-1.9V245l-21.6-37c0,0,2.9-2.2,9.7-2.2
				C460.6,205.7,463.3,207.5,463.3,207.5z"/>
			<path class="st0" d="M539,274.8c-23.1,0-33.1-13.5-33.1-34.8c0-21.3,10.1-35,33.1-35c23,0,33.1,13.7,33.1,35
				C572.1,261.3,561.9,274.8,539,274.8z M539,261.6c9.8,0,15-8.8,15-21.6c0-12.8-5.3-21.7-15-21.7c-9.8,0-15,8.9-15,21.7
				C523.9,252.8,529.2,261.6,539,261.6z"/>
			<path class="st0" d="M599.8,272.2c0,0-2.6,1.9-9.1,1.9c-6.3,0-8.9-1.9-8.9-1.9v-63.8c0,0,7.3-3.4,20.8-3.4
				c20.4,0,29.9,7.8,29.9,21.5c0,13.5-10.4,18.9-11.6,19l15.8,26.3c-1.9,1.3-7.3,2.2-10.9,2.2c-4.7,0-8.4-1.7-8.4-1.7l-11.9-20.8
				c-0.7-1.5-1.7-2.5-3.3-2.5h-2.3V272.2z M604.9,218.3c-2.9,0-5.1,0.6-5.1,0.6v17h4.9c7.1,0,9.9-5,9.9-8.8
				C614.6,222.1,611.1,218.3,604.9,218.3z"/>
			<path class="st0" d="M705.9,271.7c0,0-4.6,2.3-12,2.3c-6.4,0-9-1.7-9-1.7L661.7,241v31.2c0,0-2.4,1.9-8.9,1.9
				c-6.5,0-9.1-1.9-9.1-1.9v-64.6c0,0,2.6-1.9,9.1-1.9c6.3,0,8.9,1.9,8.9,1.9v30.4l22.4-30.5c0,0,2.6-1.8,9-1.8
				c7.3,0,10.3,2.4,10.3,2.4l-21.9,29.8L705.9,271.7z"/>
			<path class="st0" d="M497.5,295.4c1.3,6.2-2.1,11.2-5.8,12.5c-3.6-2.4-9.4-4.6-15.4-4.6c-6.2,0-9.6,2.3-9.6,5.7
				c0,3.1,2.8,4.2,10.3,6.6l9.4,3c10.1,3.3,16.3,8.4,16.3,19.1c0,12.4-8.2,22-28.1,22c-14,0-22.6-4.7-25.7-7.8
				c-1-4.6,1.6-10.4,5.2-12.2c3.1,2.3,12.4,6.8,21.9,6.8c5.7,0,8.8-2,8.8-5.8c0-2.6-1.7-4.3-5.6-5.6l-15.7-4.8
				c-8.4-2.6-14.8-8.7-14.8-18.6c0-14.1,9.6-21.9,27.2-21.9C487.2,290,493.7,293,497.5,295.4z"/>
			<path class="st0" d="M507.6,304c0,0-1.9-2-1.9-6.6c0-4.5,1.9-6.6,1.9-6.6h53c0,0,1.9,2.1,1.9,6.6c0,4.6-1.9,6.6-1.9,6.6h-17.6
				v53.2c0,0-2.5,1.9-8.9,1.9c-6.5,0-9.2-1.9-9.2-1.9V304H507.6z"/>
			<path class="st0" d="M599.1,292.4l26.4,64.5c0,0-2.6,2.2-9.3,2.2c-6.2,0-8.6-1.8-8.6-1.8l-4.8-11.2h-25.1l-4.5,11.2
				c0,0-2.5,1.8-8.6,1.8c-6.6,0-9.5-2.2-9.5-2.2l26.4-64.5c0,0,2.4-1.8,8.8-1.8C596.7,290.7,599.1,292.4,599.1,292.4z M583,333h14.6
				l-4.9-11.7c-1-2.3-2.2-7.1-2.4-7.6c-0.2,0.5-1.7,5.3-2.5,7.6L583,333z"/>
			<path class="st0" d="M620.1,304c0,0-1.9-2-1.9-6.6c0-4.5,1.9-6.6,1.9-6.6h53c0,0,1.9,2.1,1.9,6.6c0,4.6-1.9,6.6-1.9,6.6h-17.6
				v53.2c0,0-2.5,1.9-8.9,1.9c-6.5,0-9.2-1.9-9.2-1.9V304H620.1z"/>
			<path class="st0" d="M718.4,329.4h-17.1v16.5H726c0,0,1.9,2.1,1.9,6.5c0,4.6-1.9,6.6-1.9,6.6h-42.8v-68.4H724c0,0,2,2.1,2,6.6
				c0,4.5-2,6.6-2,6.6h-22.8v12.1h17.1c0,0,1.9,2.2,1.9,6.6C720.2,327.4,718.4,329.4,718.4,329.4z"/>
		</g>
	</g>
	<path class="st0" d="M443.8,467c-1,0-2-0.2-3.1-0.7c-1.5-0.8-2.6-2.2-3-3.9c-0.5-1.9,0.1-4.1,1.4-6.1l0.5-0.7
		c0.5-0.7,0.9-1.3,1.5-1.9c0.6-0.7,1.2-1.1,1.7-1.5c-0.4-2-0.2-3.8,0-5.4c0.1-1.3,0.5-2.4,0.8-3.3c0.1-0.4,0.2-0.8,0.3-1.2
		c0.7-3.2,1.2-6.1,1.5-9c0.2-2.6,0.2-2.6-0.2-3.2c-1.4-1.7-3.7-2.9-6.2-4.2c-1.2-0.6-2.4-1.3-3.5-1.9c-7.1-4.4-14.3-8.7-21.4-13.1
		l-2.5-1.5c-0.6-0.3-1.6-0.9-2.8-1.5c-7.9-4.1-13.1-7.1-14-11.4c-0.1-0.6-0.8-2.1-1.3-2.9c-0.3,0-1.1-0.1-1.7-0.1
		c-2.6-0.2-6.5-0.5-9.6-3.8c-0.6-0.7-1.3-1.3-1.8-1.9c-4.4-4.5-8.1-8.3-8.6-17.8c-0.1-1.2-0.1-2.5,0-3.8c0-3.9,0-6.5-1.6-8.1
		c-0.8-0.8-2-1.3-3.5-1.9c-1.8-0.7-3.9-1.6-5.8-3.2c-0.6-0.5-1.3-1.2-2-2.1c-0.8-0.9-2-2.3-2.8-2.6c-6.1-2.1-13.4-2.3-20.9-2.3
		l-250.2-0.2c-1.6,0-3,0.2-4.3,0.3c-3,0.3-6.5,0.7-9.3-1.7c-2.7-2.4-3.1-6.1-3.1-9.4l0-17.5c0-0.9,0.3-1.8,0.7-2.6
		c2.3-3.7,6.8-5.7,10.7-7.4c1.5-0.7,3-1.3,3.8-1.9c2.1-1.4,4-3.3,6.1-5.3c1.5-1.5,3.1-3,4.9-4.5c2.4-2,5.2-3.4,7.9-4.9
		c2.3-1.2,4.5-2.4,6-3.6c1.1-0.9,1.9-2.4,2.8-4.1c1-1.9,2.2-4,3.9-5.8c1.9-2,4.4-3.3,6.5-4.5c4.9-2.8,4.8-3.1,4-4.9
		c-0.4-0.9-0.7-1.6-1-2.3c-1.4-3.1-2.7-5.8-1.8-11.3c0.1-0.5,0.2-1.1,0.3-1.7c0.2-1,0.5-2.9,0.3-3.4l0,0c0,0-0.1-0.1-0.3-0.2
		c-0.2-0.1-0.8-0.1-1.2-0.1c-1.4,0-4.1,0.1-6-2.2c-2-2.2-1.9-5.2-1.5-7.5c0.3-2.3,0.2-3.8,0-5.2c-0.6-5.6,1.3-8.3,7.8-10.9
		c19.6-7.8,35.4-10.4,49.9-8.3c0.9,0.1,2-0.1,3.4-0.4c2-0.4,4.6-0.9,7.3-0.4l15.4,2.9c6.3,1.2,9.4,2.4,14.1,6.7
		c2.4,2.2,3.4,2,7.6,0.5c2.1-0.7,4.5-1.6,7.4-2c4.7-0.6,9.2-0.2,13.4,0.2c1.9,0.2,3.9,0.4,5.8,0.4c2.2,0.1,4.9-0.9,7.6-1.9
		c1.2-0.4,2.3-0.9,3.5-1.2c2.5-0.8,4.8-1.1,7.1-1.5c1.1-0.2,2.2-0.3,3.4-0.6c0.1-0.1,0.2-0.3,0.2-0.4c0.4-0.6,0.7-1.3,1.2-2
		c2.1-2.8,5.1-4.7,7.5-6.1l1-0.6c2.6-1.6,4.8-3.1,6.6-4.9c3.2-3.3,7.5-3.1,10.4-3c1,0.1,2.5,0.1,3-0.1c1.9-0.8,0.2-6.7-0.8-10.2
		c-0.7-2.5-1.3-4.6-1.4-6.5c-0.3-5.5,2.7-9.3,5.1-12.4c1.9-2.4,3.1-4,3-5.6c0-0.3-0.1-0.7-0.2-1.1c-1.7,0.8-4.4,1.8-7.4,0.4
		c-4.9-2.3-7.6-10.3-6.1-14.8c1.2-3.8,5.1-6.2,7.9-8l1-0.7c2.4-1.6,4.9-3,7.4-4.3c3.4-1.8,6.6-3.5,9.2-5.7c1.1-0.9,2.1-1.9,3.1-2.8
		c2.2-2,4.5-4.1,7.2-6c0.2-0.7,0.4-2,0.5-2.8c0.2-1.6,0.4-3.2,1-4.6c2.7-6.8,9.4-12.2,15.4-16.9c2-1.6,3.8-3,5.3-4.4
		c0.9-0.9,1.8-1.7,2.7-2.6c4.4-4.1,8.9-8.4,14.4-11.8c4.5-2.7,10.3-6.2,15.7-8.2c7.2-2.7,10.6-2.5,17.4-2.1L399,70
		c12.6,0.7,25.8,0.4,38.5,0.1c6.4-0.2,12.7-0.3,19-0.4c1.7,0,4.3-0.3,7-0.7c9-1.1,19.3-2.4,25.1,2.6c2.4,2.1,3.8,5,3.8,8.5
		c0.1,2.7-1.1,4.8-1.9,6.3c-0.3,0.5-0.7,1.2-0.7,1.5c0-0.1,0.3,0.3,0.5,0.6c0.9,1.4,2.6,3.9,2,7.8c-0.3,1.5-0.7,3-1.1,4.6
		c-0.6,2-1.1,4.1-1.2,5.6c-0.1,2.7-2.4,4.9-5.1,4.8c-2.7-0.1-4.9-2.4-4.8-5.1c0.1-2.7,0.9-5.5,1.5-7.9c0.4-1.3,0.7-2.6,0.9-3.8
		c-0.1,0-0.3-0.2-0.4-0.5c-0.8-1.2-2.2-3.2-2.2-6.2c0-2.7,1.1-4.7,2-6.2c0.2-0.4,0.6-1.1,0.7-1.4c0-0.8-0.3-1-0.4-1.1
		c-2.5-2.2-12.2-1-17.4-0.3c-3,0.4-5.9,0.7-8.2,0.7c-6.2,0-12.5,0.2-18.8,0.3c-12.9,0.3-26.2,0.7-39.3-0.1l-1.3-0.1
		c-6.4-0.4-8.1-0.5-13.3,1.5c-4.7,1.8-10.2,5-14,7.4c-4.7,2.9-8.6,6.6-12.8,10.5c-0.9,0.9-1.9,1.8-2.8,2.6c-1.7,1.6-3.7,3.2-5.8,4.8
		c-5,3.9-10.6,8.4-12.3,12.8c-0.1,0.4-0.3,1.5-0.4,2.3c-0.4,3.2-1,7.1-4.2,9.3c-2.3,1.5-4.4,3.5-6.5,5.5c-1,1-2.1,2-3.3,3
		c-3.4,3-7.3,5-11,7c-2.3,1.2-4.5,2.4-6.5,3.7c-0.4,0.2-0.8,0.5-1.2,0.8c-0.9,0.6-3,1.9-3.7,2.7c0.1,0.6,0.3,1.4,0.6,2
		c1.2-0.6,2.9-1.3,4.9-1.1c5.8,0.5,8.6,6.9,8.7,11.3c0.1,5.2-2.8,9-5.1,11.9c-1.9,2.5-3.1,4.1-3,5.7c0.1,0.9,0.6,2.8,1.1,4.4
		c1.8,6.2,5,17.7-4.8,22c-2.6,1.1-5.3,1-7.5,0.9c-0.9-0.1-2.5-0.1-2.9,0.1c-2.4,2.5-5.3,4.4-8.3,6.3l-1.1,0.7
		c-1.8,1.1-3.7,2.3-4.6,3.5c-0.2,0.3-0.4,0.7-0.6,1c-0.9,1.6-2.5,4.3-6.5,5.2c-1.4,0.3-2.8,0.5-4.2,0.7c-2,0.3-3.9,0.6-5.7,1.1
		c-1,0.3-2,0.7-3,1.1c-3.4,1.3-7.3,2.7-11.4,2.5c-2.1-0.1-4.2-0.3-6.3-0.5c-3.9-0.4-7.6-0.7-11.2-0.2c-1.9,0.3-3.6,0.9-5.4,1.5
		c-4.5,1.6-10.7,3.8-17.5-2.5c-3-2.8-4.3-3.3-9.3-4.3l-15.4-2.9c-0.9-0.2-2.1,0.1-3.6,0.4c-1.9,0.4-4.2,0.8-6.7,0.5
		c-12.7-1.9-26.9,0.6-44.8,7.7c-0.7,0.3-1.3,0.5-1.6,0.7c0.2,1.4,0.4,3.3,0.1,6c1,0.1,2.2,0.5,3.5,1.1c7,3.7,5.7,10.8,5.1,14.1
		c-0.1,0.5-0.2,0.9-0.2,1.4c-0.4,2.6-0.2,3.1,1,5.7c0.4,0.8,0.7,1.6,1.2,2.6c4.3,10.3-3.9,14.9-8.3,17.3c-1.6,0.9-3.3,1.9-4.3,2.8
		c-0.8,0.9-1.6,2.2-2.3,3.6c-1.2,2.3-2.6,4.8-5.1,6.9c-2.3,1.9-5.1,3.4-7.7,4.8c-2.3,1.2-4.6,2.4-6.2,3.8c-1.4,1.1-2.7,2.5-4.2,3.9
		c-2.3,2.2-4.6,4.6-7.6,6.5c-1.5,1-3.3,1.8-5.3,2.7c-1.6,0.7-4.3,1.9-5.6,2.9l0,15.6c0,0.6,0,1,0,1.4c0.4,0,0.9-0.1,1.2-0.1
		c1.5-0.2,3.3-0.4,5.5-0.4l250.2,0.2c8.1,0,16.7,0.2,24.2,2.8c3.3,1.1,5.5,3.7,7,5.4c0.3,0.4,0.6,0.8,0.9,1c0.7,0.6,1.8,1,3.2,1.6
		c2.1,0.8,4.6,1.9,6.8,4.1c4.6,4.6,4.5,10.5,4.5,15.2c0,1.1,0,2.2,0,3.2c0.3,5.8,1.9,7.4,5.8,11.4c0.6,0.6,1.3,1.3,2,2
		c0.5,0.5,1.5,0.6,3.3,0.8c2.1,0.2,4.6,0.4,6.9,2.1c2.5,1.8,4.1,5.9,4.7,8c1.5,1.5,6.9,4.3,9.1,5.4c1.5,0.8,2.7,1.4,3.4,1.8l2.5,1.5
		c7.1,4.4,14.3,8.7,21.4,13.1c0.9,0.6,1.9,1.1,3,1.6c3.1,1.6,6.6,3.5,9.3,6.8c2.9,3.6,2.7,6.9,2.4,9.8c0.4-0.8,0.9-1.6,1.4-2.3
		c1-1.4,2.1-2.4,3.1-3.4c1-0.9,1.7-1.6,1.9-2.1c-0.2-0.5-0.6-1.2-0.9-1.7c-1.2-2-2.8-4.8-2.1-8.1c0.3-1.3,1.1-2.4,2.2-3.1
		c0.4-0.3,1.3-0.8,2.5-1.4c1.6-0.9,5.7-3.1,8.2-4.8c-3.7-8.1-2.5-18.1-1.4-27c0.3-2.8,0.7-5.4,0.8-7.7c0.2-2.7,2.5-4.8,5.2-4.6
		c2.7,0.2,4.8,2.5,4.6,5.2c-0.2,2.6-0.5,5.4-0.9,8.3c-1,8.4-2.2,18,1.6,23.5c0.9,1.3,1.2,2.9,0.8,4.4c-0.8,3.2-4.1,5.7-12.9,10.6
		c1.2,2,2.5,4.6,2,7.7c-0.1,0.5-0.2,0.9-0.3,1.3c2.5-0.9,5-1.7,7.8-2.5c10.3-2.9,21.1-4.2,35-4.2c6.2,0,11.6-2,17.4-4
		c4.6-1.6,9.4-3.3,14.7-4.1c4.5-0.7,6.8,0.8,8.8,2.3c0.7,0.5,1.2,0.9,2,1.2c2.4,0.9,5.1,0.6,8.2,0.3c3.2-0.3,6.8-0.7,10.5,0.2
		c2.2,0.6,3.7,2.6,3.7,4.8c-0.1,8.6-11.7,12.1-17.2,13.9l-5.3,1.7c-4,1.3-8,2.5-12,3.7c-1.8,0.5-3.6,1-5.4,1.5
		c-2.1,0.5-4.2,1.7-6.5,3c-2.3,1.3-4.7,2.6-7.4,3.5c-4.8,1.5-9.6,2.3-15.8,2.6c-1.8,0.1-3.5,0.9-5.3,1.7c-2.7,1.2-6,2.7-9.7,1.5
		c-1.6-0.2-7.8,1.9-10.8,2.9c-2.4,0.8-4.4,1.5-6,1.9c-5.5,1.3-11.1,2.3-16.5,3.3l-3.8,0.7c-3.3,0.6-6.6,1.2-9.9,2l-0.4,0.1
		C446.5,466.6,445.2,467,443.8,467z M453.9,442.9c-0.1,0.5-0.2,1.1-0.4,1.6c-0.2,0.6-0.3,1.2-0.5,1.8c-0.2,0.7-0.4,1.2-0.4,1.6
		c-0.1,1.3-0.2,1.9,0,2.6c0.4,1.8,0.3,3.4,0,4.6c1.1-0.2,2.3-0.4,3.4-0.7l3.8-0.7c5.3-1,10.7-1.9,16-3.2c1.1-0.3,3-0.9,5-1.6
		c7.8-2.6,13.1-4.3,17-3c0.3-0.1,1.7-0.7,2.6-1.1c2.3-1.1,5.3-2.4,8.9-2.5c5.2-0.2,9.3-0.9,13.1-2.1c1.8-0.6,3.7-1.6,5.7-2.8
		c2.7-1.5,5.5-3.1,8.9-3.9c1.7-0.4,3.4-0.9,5.2-1.4c3.9-1.1,7.9-2.4,11.7-3.6l3.6-1.1c-1.4-0.2-2.8-0.5-4.2-1.1
		c-2.2-0.8-3.5-1.9-4.4-2.6c-0.2-0.2-0.4-0.3-0.6-0.5c0,0-0.3,0-0.7,0.1c-4.4,0.7-8.5,2.1-12.8,3.7c-6.4,2.3-12.9,4.6-20.8,4.6
		c-13,0-22.9,1.2-32.3,3.9c-8.4,2.4-15.3,5.3-20.9,9c-1.7,1.1-3.8,1.1-5.5-0.1C454.7,444.1,454.2,443.5,453.9,442.9z"/>
</g>
<g>
	<path class="st0" d="M561.4,443.8c0,0-0.1-0.1-0.1-0.5c0-0.4,0.1-0.5,0.1-0.5h6.8c0,0,0.1,0.2,0.1,0.5c0,0.4-0.1,0.5-0.1,0.5h-2.7
		v8.1c0,0-0.2,0.1-0.7,0.1c-0.5,0-0.7-0.1-0.7-0.1v-8.1H561.4z"/>
	<path class="st0" d="M574.6,451.5c-0.1,0.1-0.3,0.1-0.6,0.1c-0.2,0-0.5,0-0.6-0.1l-2.1-5.2c-0.1-0.3-0.3-0.8-0.3-0.9
		c0,0-0.1,0.8-0.1,1l-0.4,5.5c0,0-0.2,0.1-0.7,0.1c-0.5,0-0.7-0.1-0.7-0.1l0.7-9c0,0,0.2-0.1,0.7-0.1c0.5,0,0.7,0.1,0.7,0.1l2.4,6.1
		l0.3,1c0,0,0.2-0.7,0.3-1l2.4-6.1c0,0,0.2-0.1,0.8-0.1c0.5,0,0.7,0.1,0.7,0.1l0.7,9c0,0-0.2,0.1-0.7,0.1c-0.5,0-0.7-0.1-0.7-0.1
		l-0.4-5.6l-0.1-1c0,0-0.2,0.7-0.3,0.9L574.6,451.5z"/>
</g>
</svg>
